<?xml version="1.0" encoding="utf-8"?><!-- Uploaded to: SVG Repo, www.svgrepo.com, Generator: SVG Repo Mixer Tools -->
<svg fill="#000000" width="800px" height="800px" viewBox="0 0 24 24" id="pancake" data-name="Flat Line" xmlns="http://www.w3.org/2000/svg" class="icon flat-line"><path id="secondary" d="M16,6v6a2,2,0,0,1-2.34,2A2.07,2.07,0,0,1,12,11.89V11a1,1,0,0,0-1-1H10A2,2,0,0,1,8,8V6h8Z" style="fill: rgb(44, 169, 188); stroke-width: 2;"></path><line id="primary" x1="10" y1="10" x2="4" y2="10" style="fill: none; stroke: rgb(0, 0, 0); stroke-linecap: round; stroke-linejoin: round; stroke-width: 2;"></line><line id="primary-2" data-name="primary" x1="16" y1="10" x2="20" y2="10" style="fill: none; stroke: rgb(0, 0, 0); stroke-linecap: round; stroke-linejoin: round; stroke-width: 2;"></line><path id="primary-3" data-name="primary" d="M20,14H4M3,18H21M4,7V18H20V7a1,1,0,0,0-1-1H5A1,1,0,0,0,4,7Zm8-1H8V8a2,2,0,0,0,2,2h1a1,1,0,0,1,1,1v.89A2.07,2.07,0,0,0,13.66,14,2,2,0,0,0,16,12V6Z" style="fill: none; stroke: rgb(0, 0, 0); stroke-linecap: round; stroke-linejoin: round; stroke-width: 2;"></path></svg>